<svg id="beautifierLogo" data-name="beautifierLogo" xmlns="http://www.w3.org/2000/svg" viewBox="0 0 359.51 75.51"><defs><style>.cls-1{fill:#100503;}.cls-2{fill:#e42421;}</style></defs><title>beautifier</title><path class="cls-1" d="M298.89,104.18c-1.27,5.61-5.24,7.48-10,8.1a23.4,23.4,0,0,1-10.36-.43c-2.06-.65-4,.06-5.88.51a19.69,19.69,0,0,1-16.11-3.22c-1.38-1-2.2-1.52-3.91.07-3.77,3.53-8.65,4.19-13.6,3.32-3.13-.55-6.09-1-9.34-.24-6.9,1.66-13-.39-18.06-5.26-1-.93-1.39-1.39-2.72-.32-10.67,8.59-29.26,8.43-38.64-1.8-1.25-1.35-1.62-.16-2.19.46-4.72,5.18-10.79,8.32-17.54,7.29-5.79-.89-11.34,0-17-.13a44.58,44.58,0,0,1-4.88-.62c-5.63-.7-8.51-5.21-8.52-10.67q0-26.14,0-52.29c0-5.21,2.71-9.4,8.37-10.57a31.38,31.38,0,0,1,14.65.35c4.08,1.07,6.74,5.1,7,10.38.1,1.92-.6,4.38.34,5.6s3.46,1.08,5.31,1.37a20.24,20.24,0,0,1,12.5,7.23c.91,1.07,1.29.53,1.88-.09,4-4.23,9.06-6.26,14.62-7.48,7.4-1.62,17.89,1.5,21.87,8.59A21.12,21.12,0,0,0,208,66.14c4.67-6.85,11.75-9.33,19.44-10.41,7.15-1,14-.08,20.12,4.24.38.27.85,1.17,1.53.18,2.33-3.4,6.09-3.94,9.67-4.32,4.64-.5,9.33-.3,13.6,2.07.4.22.71.45,1.22.17,6.2-3.36,12.68-2.8,19.17-1.18,1.36.34,1.91.4,2.13-1.24,1.12-8,4.73-9.79,11.33-10.68,5-.67,10-.48,14.6,2.3a6.18,6.18,0,0,1,2.82,3.55c1.39-2.23,1.63-4.7,3.14-6.67,3.76-4.92,9-6.21,14.6-5.88,4.69.28,9.14,1.95,11.95,6.25.51.77.86,1,1.66.24,8-7.85,17.47-8.66,27.7-5.79a5.26,5.26,0,0,0,2.94-.21c5.06-1.38,9.69-.23,14.17,2.29,5,2.81,7.84,12,5.28,18.4a1.93,1.93,0,0,0-.07.43c.71.4,1.21,0,1.75-.36a27.77,27.77,0,0,1,24.47-2.28,23.09,23.09,0,0,1,5.45,3.09c.51.36,1,1.18,1.79.21,4.66-5.55,10.89-5.24,17.15-4.33a13.4,13.4,0,0,0,6.14-.32c6.37-2,16.68,2.59,17.78,10.4.79,5.57-3.07,15.85-7.76,19a6.52,6.52,0,0,1-3.1,1c-2,.18-2.23,1.15-2.17,2.85.12,3.67,0,7.34,0,11,0,7.57-2.68,11.13-10.11,12.14-5.78.78-11.76,1.15-16.81-2.88-1-.82-1.68-.1-2.48.21-5,2-10.2,3.48-15.68,3.37-6-.13-11.6-1.39-16.41-5.18-.8-.63-1.36-1.19-2.08.06-2,3.42-5.47,4.23-8.91,4.51-5.82.47-11.8,1-16.61-3.48-.73-.69-.85,0-1.21.28-7.51,4.92-15.25,4.56-23.11,1-.66-.3-1.15-.78-2-.25-5.68,3.58-11.87,3.36-18,1.87a17.11,17.11,0,0,0-8.42.3c-7.9,1.89-15.4,1.22-22.13-3.84A29.34,29.34,0,0,1,298.89,104.18Zm-63.21-4.63c.12,1.88.26,3.53,2.2,3.9a15.81,15.81,0,0,0,7.08.15c1.65-.44,2.48-1.26,2.47-3-.08-7.71,0-15.41-.14-23.12-.14-6.91-4.13-11.65-10.89-12.8a29,29,0,0,0-8-.11c-5.32.59-10,2.43-13.45,7-3.92,5.19-8,10.24-11.73,15.58a13.6,13.6,0,0,1-10.72,6.31c-3.33.2-6.44-.36-8.43-3.46-.93-1.45-1.1-2.46,1.3-2.38,4.31.14,8.62,0,12.93,0,2.28,0,3.42-.86,3.32-3.26s.09-5-.07-7.43c-.64-9.89-7.52-14.69-17.11-12-8.41,2.36-13.46,9.69-13.36,19.44.1,10.53,5.66,17.75,15.68,19.44,8.8,1.49,15.95-1.77,21.36-8.9,3.81-5,7.31-10.32,11.52-15.05,3.48-3.9,9.95-5.95,13.34-4.21,1.13.58,2.38,1.29,2.15,2.86s-1.48,1.83-2.85,2A27,27,0,0,0,221.17,84c-4.32,2.7-6.57,7.44-5.66,11.89s4,7.44,8.9,8.1C228.8,104.58,232.41,102.77,235.68,99.55Zm-94.57-.88a6.93,6.93,0,0,0,.77,1.07c6.29,6.29,15.08,5.71,20.49-1.34,6-7.81,5.87-21.08-.29-28.74a13.56,13.56,0,0,0-11.47-5.34c-3.85.09-6.58,2.18-9.46,5,0-6.93-.06-13.32,0-19.71,0-2-.59-2.92-2.63-2.87s-4,0-6.05-.05c-2.63-.14-3.64.77-3.62,3.63.15,15.5,0,31,.1,46.5,0,6.94-1.64,6.74,6.74,6.73C140.41,103.58,140.41,103.57,141.11,98.67ZM382.42,56.38c.26.42.46.72.64,1,2,3.45,6.49,4.72,10.55,3,3-1.28,4.45-5.23,3.27-9a6.39,6.39,0,0,0-8.46-4c-3.81,1.36-7,.82-10.43-.54a8.75,8.75,0,0,0-1.61-.37c-8.93-1.58-16.3,2.84-18.11,11a28,28,0,0,0-.34,5.74c0,1.18-.2,1.79-1.62,1.86-3.81.2-3.8.28-3.83,4.19,0,1.28,0,2.56,0,3.85,0,2,.88,3.17,3,2.88,2-.27,2.46.54,2.43,2.44-.1,7.34,0,14.68-.09,22,0,2.27.74,3.2,2.94,3.15s4.22,0,6.33,0,3.11-.67,3.05-3.06c-.16-6.51-.06-13-.06-19.53,0-5,0-5.08,5-5,2.31,0,3.47-.64,3.4-3,0-.82.17-1.65.18-2.47,0-5.46,0-5.51-5.38-5.51a15.14,15.14,0,0,0-1.65,0c-1.17.11-1.53-.36-1.61-1.55-.35-5.27,2.44-7.33,7.68-5.21C380.2,59.24,381.58,59,382.42,56.38ZM278.56,98.44c.32,5.13.32,5.13,5.19,5.14,1.19,0,2.39,0,3.58,0,2.13.07,3.05-.68,3-3-.13-9.45,0-18.9,0-28.35,0-7.8-.62-8.35-8.55-7.52-.46,0-.9.2-1.36.21-1.75,0-2.31.9-2.29,2.63.09,5.78.05,11.56,0,17.34a12.4,12.4,0,0,1-.29,3c-.81,3.25-2.92,4.69-6,4.25-2.41-.34-3.55-2-3.55-5.31,0-6.23-.1-12.47.05-18.71.05-2.26-.78-3.12-2.92-3.29a32.27,32.27,0,0,0-7.67.17c-1.36.21-2,.87-1.94,2.17.13,8.43-.51,16.89.42,25.29.8,7.26,6.39,12.1,13.16,11.71C273.21,103.87,275.9,101.61,278.56,98.44ZM426,87.58c1.92,0,3.85,0,5.78,0,6.68-.18,6.23,1.58,6-6.42-.4-12-9.9-19.18-21.11-16.32-7.59,1.94-11.9,7.08-13.23,14.48-1.4,7.72-.25,15.09,6.06,20.6,6.12,5.34,13.37,5.18,20.48,2.79,7.49-2.51,7.39-2.45,4.14-10.35-.66-1.59-1.63-2-3.24-1a15.79,15.79,0,0,1-7.59,2.06c-3,.11-5.63-.73-7.31-3.45-.89-1.43-1.21-2.5,1.24-2.37C420.16,87.7,423.1,87.58,426,87.58ZM310.1,53.77c-6.19,0-6.19,0-6.19,6a12.28,12.28,0,0,0,0,1.92c.41,2.54-.37,3.6-3.18,3.38-3.47-.28-3.82.28-3.87,3.9,0,.74,0,1.47,0,2.2,0,4.67.08,4.86,4.72,4.78,2.07,0,2.39.75,2.35,2.55-.08,4.49-.08,9,.1,13.48.25,6.53,3.73,10.56,10.09,11.85a20.48,20.48,0,0,0,7.91-.2c6.94-1.33,7.64-2.51,5.11-9.09-1.25-3.27-1.47-3.36-4.92-2.19-4.29,1.46-6.07.21-6.09-4.29,0-3,.15-6.06,0-9.08-.16-2.34.42-3.13,2.95-3,6.57.19,6.58,0,6.45-6.66V69c-.12-3.68-.45-4-4.19-4-5.16,0-5.16,0-5.16-5.11C316.15,53.78,316.15,53.78,310.1,53.77Zm147,15c.62-3.28-1.14-3.9-3.64-4-1.75-.09-3.47.06-5.21.06-2.32,0-2.91,1.09-2.88,3.25.09,8.9,0,17.8,0,26.69,0,9.34,0,9.3,9.35,8.83,2.19-.11,3-.92,2.94-3.19-.15-5.5,0-11-.07-16.51a10.72,10.72,0,0,1,.8-4.28c1.1-2.6,3.5-3.82,6-2.62s3.72.22,4.53-2c.48-1.28.94-2.57,1.31-3.89,1.19-4.32-.8-6.72-5.38-6.77C461.53,64.29,459.44,66.4,457.11,68.79ZM346,84.32c0-5.4-.14-10.81.06-16.21.09-2.42-.81-3.28-3-3.41a36.84,36.84,0,0,0-7.12.18c-1.61.22-2.13.92-2.12,2.51.05,11.18.07,22.35,0,33.53,0,2,.93,2.6,2.64,2.62,2.19,0,4.39,0,6.59,0s3.12-.65,3-3C345.85,95.14,346,89.73,346,84.32Zm50-.21c0-5.41-.1-10.82.06-16.22.06-2.14-.68-2.92-2.74-3.11a35.1,35.1,0,0,0-7.39.08c-1.61.18-2.18.87-2.18,2.46q.06,16.91,0,33.81c0,1.68.76,2.36,2.26,2.4,2.38,0,4.77,0,7.15,0,2,0,2.93-.77,2.88-3C395.9,95.1,396,89.61,396,84.11ZM332.64,54c0,4.73,2.5,7.2,7.33,7.18,4.59,0,7.33-2.61,7.4-7S344.6,47,339.9,47,332.66,49.42,332.64,54Z" transform="translate(-120.12 -37.45)"/><path class="cls-2" d="M235.68,99.55c-3.27,3.22-6.88,5-11.27,4.44-4.86-.66-8-3.6-8.9-8.1s1.34-9.19,5.66-11.89a27,27,0,0,1,11.16-3.52c1.37-.18,2.62-.44,2.85-2s-1-2.28-2.15-2.86c-3.39-1.74-9.86.31-13.34,4.21-4.21,4.73-7.71,10-11.52,15.05-5.41,7.13-12.56,10.39-21.36,8.9-10-1.69-15.58-8.91-15.68-19.44-.1-9.75,5-17.08,13.36-19.44,9.59-2.68,16.47,2.12,17.11,12,.16,2.47,0,5,.07,7.43s-1,3.29-3.32,3.26c-4.31,0-8.62.09-12.93,0-2.4-.08-2.23.93-1.3,2.38,2,3.1,5.1,3.66,8.43,3.46a13.6,13.6,0,0,0,10.72-6.31C207,81.73,211.08,76.68,215,71.49c3.43-4.54,8.13-6.38,13.45-7a29,29,0,0,1,8,.11c6.76,1.15,10.75,5.89,10.89,12.8.16,7.71.06,15.41.14,23.12,0,1.79-.82,2.61-2.47,3a15.81,15.81,0,0,1-7.08-.15C235.94,103.08,235.8,101.43,235.68,99.55ZM188.57,80.42c1.47,0,2.94,0,4.4,0s1.5-.45,1.17-1.65c-.57-2.11-1.59-3.74-3.92-4A5.8,5.8,0,0,0,184,77.87c-1.27,2.25-1.09,2.53,1.52,2.56Zm45.15,7.12c-3.07-.08-5.73,1.52-5.8,3.47-.06,1.74,1,2.5,2.53,2.58a4.72,4.72,0,0,0,4.67-4.43C235.15,88.15,235.1,87.24,233.72,87.54Z" transform="translate(-120.12 -37.45)"/><path class="cls-2" d="M141.11,98.67c-.7,4.9-.7,4.91-5.39,4.91-8.38,0-6.71.21-6.74-6.73-.08-15.5.05-31-.1-46.5,0-2.86,1-3.77,3.62-3.63,2,.1,4,.1,6.05.05s2.66.89,2.63,2.87c-.09,6.39,0,12.78,0,19.71,2.88-2.85,5.61-4.94,9.46-5a13.56,13.56,0,0,1,11.47,5.34c6.16,7.66,6.29,20.93.29,28.74-5.41,7-14.2,7.63-20.49,1.34A6.93,6.93,0,0,1,141.11,98.67Zm13.24-14.46c0-4.64-2.78-8-6.7-8.15s-7.13,3.62-7.12,8.14,3,7.87,7,7.88S154.34,88.92,154.35,84.21Z" transform="translate(-120.12 -37.45)"/><path class="cls-2" d="M382.42,56.38c-.84,2.58-2.22,2.86-4.65,1.88-5.24-2.12-8-.06-7.68,5.21.08,1.19.44,1.66,1.61,1.55a15.14,15.14,0,0,1,1.65,0c5.36,0,5.41,0,5.38,5.51,0,.82-.2,1.65-.18,2.47.07,2.4-1.09,3.09-3.4,3-5-.13-5,0-5,5,0,6.51-.1,13,.06,19.53.06,2.39-.94,3.09-3.05,3.06s-4.22,0-6.33,0-3-.88-2.94-3.15c.13-7.33,0-14.67.09-22,0-1.9-.47-2.71-2.43-2.44-2.15.29-3-.87-3-2.88,0-1.29,0-2.57,0-3.85,0-3.91,0-4,3.83-4.19,1.42-.07,1.61-.68,1.62-1.86a28,28,0,0,1,.34-5.74c1.81-8.16,9.18-12.58,18.11-11a8.75,8.75,0,0,1,1.61.37c3.41,1.36,6.62,1.9,10.43.54a6.39,6.39,0,0,1,8.46,4c1.18,3.76-.26,7.71-3.27,9-4.06,1.73-8.53.46-10.55-3C382.88,57.1,382.68,56.8,382.42,56.38Z" transform="translate(-120.12 -37.45)"/><path class="cls-2" d="M278.56,98.44c-2.66,3.17-5.35,5.43-9.21,5.65-6.77.39-12.36-4.45-13.16-11.71-.93-8.4-.29-16.86-.42-25.29,0-1.3.58-2,1.94-2.17a32.27,32.27,0,0,1,7.67-.17c2.14.17,3,1,2.92,3.29-.15,6.24-.06,12.48-.05,18.71,0,3.29,1.14,5,3.55,5.31,3.1.44,5.21-1,6-4.25a12.4,12.4,0,0,0,.29-3c0-5.78.07-11.56,0-17.34,0-1.73.54-2.59,2.29-2.63.46,0,.9-.17,1.36-.21,7.93-.83,8.55-.28,8.55,7.52,0,9.45-.08,18.9,0,28.35,0,2.37-.88,3.12-3,3-1.19,0-2.39,0-3.58,0C278.88,103.57,278.88,103.57,278.56,98.44Z" transform="translate(-120.12 -37.45)"/><path class="cls-2" d="M426,87.58c-2.94,0-5.88.12-8.81,0-2.45-.13-2.13.94-1.24,2.37,1.68,2.72,4.31,3.56,7.31,3.45a15.79,15.79,0,0,0,7.59-2.06c1.61-1,2.58-.54,3.24,1,3.25,7.9,3.35,7.84-4.14,10.35-7.11,2.39-14.36,2.55-20.48-2.79-6.31-5.51-7.46-12.88-6.06-20.6,1.33-7.4,5.64-12.54,13.23-14.48,11.21-2.86,20.71,4.36,21.11,16.32.26,8,.71,6.24-6,6.42C429.89,87.62,428,87.58,426,87.58Zm-5.47-7.15c1.37,0,2.75-.07,4.12,0s1.66-.49,1.33-1.8c-.59-2.29-1.81-3.74-4.27-4a6.18,6.18,0,0,0-6.17,3.69c-.69,1.54-.34,2.2,1.42,2.06C418.18,80.35,419.38,80.43,420.57,80.43Z" transform="translate(-120.12 -37.45)"/><path class="cls-2" d="M310.1,53.77c6,0,6,0,6,6.13,0,5.11,0,5.11,5.16,5.11,3.74,0,4.07.32,4.19,4v.27c.13,6.71.12,6.85-6.45,6.66-2.53-.08-3.11.71-2.95,3,.2,3,0,6.05,0,9.08,0,4.5,1.8,5.75,6.09,4.29,3.45-1.17,3.67-1.08,4.92,2.19,2.53,6.58,1.83,7.76-5.11,9.09a20.48,20.48,0,0,1-7.91.2c-6.36-1.29-9.84-5.32-10.09-11.85-.18-4.49-.18-9-.1-13.48,0-1.8-.28-2.59-2.35-2.55-4.64.08-4.71-.11-4.72-4.78,0-.73,0-1.46,0-2.2.05-3.62.4-4.18,3.87-3.9,2.81.22,3.59-.84,3.18-3.38a12.28,12.28,0,0,1,0-1.92C303.91,53.76,303.91,53.76,310.1,53.77Z" transform="translate(-120.12 -37.45)"/><path class="cls-2" d="M457.11,68.79c2.33-2.39,4.42-4.5,7.83-4.46,4.58,0,6.57,2.45,5.38,6.77-.37,1.32-.83,2.61-1.31,3.89-.81,2.21-1.95,3.22-4.53,2s-4.94,0-6,2.62a10.72,10.72,0,0,0-.8,4.28c0,5.51-.08,11,.07,16.51.06,2.27-.75,3.08-2.94,3.19-9.36.47-9.35.51-9.35-8.83,0-8.89.05-17.79,0-26.69,0-2.16.56-3.25,2.88-3.25,1.74,0,3.46-.15,5.21-.06C456,64.89,457.73,65.51,457.11,68.79Z" transform="translate(-120.12 -37.45)"/><path class="cls-2" d="M346,84.32c0,5.41-.12,10.82,0,16.22.07,2.38-.94,3.08-3,3s-4.4,0-6.59,0c-1.71,0-2.66-.64-2.64-2.62.07-11.18.05-22.35,0-33.53,0-1.59.51-2.29,2.12-2.51A36.84,36.84,0,0,1,343,64.7c2.24.13,3.14,1,3,3.41C345.83,73.51,346,78.92,346,84.32Z" transform="translate(-120.12 -37.45)"/><path class="cls-2" d="M396,84.11c0,5.5-.08,11,0,16.49.05,2.19-.86,3-2.88,3-2.38,0-4.77,0-7.15,0-1.5,0-2.27-.72-2.26-2.4q.07-16.9,0-33.81c0-1.59.57-2.28,2.18-2.46a35.1,35.1,0,0,1,7.39-.08c2.06.19,2.8,1,2.74,3.11C395.88,73.29,396,78.7,396,84.11Z" transform="translate(-120.12 -37.45)"/><path class="cls-2" d="M332.64,54c0-4.54,2.5-6.91,7.26-7s7.56,2.69,7.47,7.16-2.81,7-7.4,7C335.14,61.16,332.62,58.69,332.64,54Z" transform="translate(-120.12 -37.45)"/><path class="cls-1" d="M188.57,80.43h-3c-2.61,0-2.79-.31-1.52-2.56a5.8,5.8,0,0,1,6.19-3.09c2.33.27,3.35,1.9,3.92,4,.33,1.2.16,1.7-1.17,1.65S190,80.42,188.57,80.43Z" transform="translate(-120.12 -37.45)"/><path class="cls-1" d="M233.72,87.54c1.38-.3,1.43.61,1.4,1.62a4.72,4.72,0,0,1-4.67,4.43c-1.58-.08-2.59-.84-2.53-2.58C228,89.06,230.65,87.46,233.72,87.54Z" transform="translate(-120.12 -37.45)"/><path class="cls-1" d="M154.35,84.21c0,4.71-2.78,7.89-6.86,7.87s-7-3.36-7-7.88,3.25-8.25,7.12-8.14S154.36,79.57,154.35,84.21Z" transform="translate(-120.12 -37.45)"/><path class="cls-1" d="M420.57,80.43c-1.19,0-2.39-.08-3.57,0-1.76.14-2.11-.52-1.42-2.06a6.18,6.18,0,0,1,6.17-3.69c2.46.21,3.68,1.66,4.27,4,.33,1.31.14,1.89-1.33,1.8S421.94,80.43,420.57,80.43Z" transform="translate(-120.12 -37.45)"/></svg>